{
    "asset" : {
        "generator" : "Khronos glTF Blender I/O v3.2.43",
        "version" : "2.0"
    },
    "scene" : 0,
    "scenes" : [
        {
            "name" : "Scene",
            "nodes" : [
                0,
                1
            ]
        }
    ],
    "nodes" : [
        {
            "mesh" : 0,
            "name" : "BottleCap",
            "scale" : [
                0.2461813986301422,
                0.09734862297773361,
                0.24618136882781982
            ]
        },
        {
            "mesh" : 1,
            "name" : "Bottle"
        }
    ],
    "materials" : [
        {
            "doubleSided" : true,
            "name" : "Coolors",
            "pbrMetallicRoughness" : {
                "baseColorTexture" : {
                    "index" : 0
                },
                "metallicFactor" : 0,
                "roughnessFactor" : 0.5
            }
        }
    ],
    "meshes" : [
        {
            "name" : "Cylinder",
            "primitives" : [
                {
                    "attributes" : {
                        "POSITION" : 0,
                        "NORMAL" : 1,
                        "TEXCOORD_0" : 2
                    },
                    "indices" : 3,
                    "material" : 0
                }
            ]
        },
        {
            "name" : "Cylinder.001",
            "primitives" : [
                {
                    "attributes" : {
                        "POSITION" : 4,
                        "NORMAL" : 5,
                        "TEXCOORD_0" : 6
                    },
                    "indices" : 7,
                    "material" : 0
                }
            ]
        }
    ],
    "textures" : [
        {
            "sampler" : 0,
            "source" : 0
        }
    ],
    "images" : [
        {
            "bufferView" : 4,
            "mimeType" : "image/png",
            "name" : "Coolors"
        }
    ],
    "accessors" : [
        {
            "bufferView" : 0,
            "componentType" : 5126,
            "count" : 881,
            "max" : [
                1,
                1,
                1
            ],
            "min" : [
                -1,
                -1,
                -1
            ],
            "type" : "VEC3"
        },
        {
            "bufferView" : 1,
            "componentType" : 5126,
            "count" : 881,
            "type" : "VEC3"
        },
        {
            "bufferView" : 2,
            "componentType" : 5126,
            "count" : 881,
            "type" : "VEC2"
        },
        {
            "bufferView" : 3,
            "componentType" : 5123,
            "count" : 1560,
            "type" : "SCALAR"
        },
        {
            "bufferView" : 5,
            "componentType" : 5126,
            "count" : 2240,
            "max" : [
                1,
                4.323060512542725,
                1
            ],
            "min" : [
                -1,
                -2.3363029956817627,
                -1
            ],
            "type" : "VEC3"
        },
        {
            "bufferView" : 6,
            "componentType" : 5126,
            "count" : 2240,
            "type" : "VEC3"
        },
        {
            "bufferView" : 7,
            "componentType" : 5126,
            "count" : 2240,
            "type" : "VEC2"
        },
        {
            "bufferView" : 8,
            "componentType" : 5123,
            "count" : 3444,
            "type" : "SCALAR"
        }
    ],
    "bufferViews" : [
        {
            "buffer" : 0,
            "byteLength" : 10572,
            "byteOffset" : 0
        },
        {
            "buffer" : 0,
            "byteLength" : 10572,
            "byteOffset" : 10572
        },
        {
            "buffer" : 0,
            "byteLength" : 7048,
            "byteOffset" : 21144
        },
        {
            "buffer" : 0,
            "byteLength" : 3120,
            "byteOffset" : 28192
        },
        {
            "buffer" : 0,
            "byteLength" : 153533,
            "byteOffset" : 31312
        },
        {
            "buffer" : 0,
            "byteLength" : 26880,
            "byteOffset" : 184848
        },
        {
            "buffer" : 0,
            "byteLength" : 26880,
            "byteOffset" : 211728
        },
        {
            "buffer" : 0,
            "byteLength" : 17920,
            "byteOffset" : 238608
        },
        {
            "buffer" : 0,
            "byteLength" : 6888,
            "byteOffset" : 256528
        }
    ],
    "samplers" : [
        {
            "magFilter" : 9729,
            "minFilter" : 9987
        }
    ],
    "buffers" : [
        {
            "byteLength" : 263416,
            "uri" : "data:application/octet-stream;base64,"
        }
    ]
}
