{
    "asset" : {
        "generator" : "Khronos glTF Blender I/O v3.2.43",
        "version" : "2.0"
    },
    "scene" : 0,
    "scenes" : [
        {
            "name" : "Scene",
            "nodes" : [
                0
            ]
        }
    ],
    "nodes" : [
        {
            "mesh" : 0,
            "name" : "bottle",
            "scale" : [
                2.005796194076538,
                2.005796194076538,
                2.005796194076538
            ],
            "translation" : [
                0,
                0.9582734704017639,
                0
            ]
        }
    ],
    "materials" : [
        {
            "doubleSided" : true,
            "name" : "Main",
            "pbrMetallicRoughness" : {
                "baseColorFactor" : [
                    1,
                    0.47315844893455505,
                    0.15674494206905365,
                    1
                ],
                "metallicFactor" : 0,
                "roughnessFactor" : 0.9036144614219666
            }
        },
        {
            "doubleSided" : true,
            "name" : "Label",
            "pbrMetallicRoughness" : {
                "baseColorFactor" : [
                    0.5380124449729919,
                    1,
                    0.6525222063064575,
                    1
                ],
                "metallicFactor" : 0,
                "roughnessFactor" : 0.5
            }
        },
        {
            "doubleSided" : true,
            "name" : "Material.010",
            "pbrMetallicRoughness" : {
                "baseColorFactor" : [
                    0.007829146459698677,
                    0.007829146459698677,
                    0.007829146459698677,
                    1
                ],
                "metallicFactor" : 0,
                "roughnessFactor" : 0.5
            }
        },
        {
            "doubleSided" : true,
            "name" : "Material.011",
            "pbrMetallicRoughness" : {
                "baseColorFactor" : [
                    0,
                    0,
                    0,
                    1
                ],
                "metallicFactor" : 0
            }
        }
    ],
    "meshes" : [
        {
            "name" : "Cylinder.007",
            "primitives" : [
                {
                    "attributes" : {
                        "POSITION" : 0,
                        "NORMAL" : 1,
                        "TEXCOORD_0" : 2
                    },
                    "indices" : 3,
                    "material" : 0
                },
                {
                    "attributes" : {
                        "POSITION" : 4,
                        "NORMAL" : 5,
                        "TEXCOORD_0" : 6
                    },
                    "indices" : 7,
                    "material" : 1
                },
                {
                    "attributes" : {
                        "POSITION" : 8,
                        "NORMAL" : 9,
                        "TEXCOORD_0" : 10
                    },
                    "indices" : 11,
                    "material" : 2
                },
                {
                    "attributes" : {
                        "POSITION" : 12,
                        "NORMAL" : 13,
                        "TEXCOORD_0" : 14
                    },
                    "indices" : 15,
                    "material" : 3
                }
            ]
        }
    ],
    "accessors" : [
        {
            "bufferView" : 0,
            "componentType" : 5126,
            "count" : 2640,
            "max" : [
                0.39329877495765686,
                1.2789664268493652,
                0.4096488058567047
            ],
            "min" : [
                -0.39329880475997925,
                -0.9921041131019592,
                -0.41353878378868103
            ],
            "type" : "VEC3"
        },
        {
            "bufferView" : 1,
            "componentType" : 5126,
            "count" : 2640,
            "type" : "VEC3"
        },
        {
            "bufferView" : 2,
            "componentType" : 5126,
            "count" : 2640,
            "type" : "VEC2"
        },
        {
            "bufferView" : 3,
            "componentType" : 5123,
            "count" : 3960,
            "type" : "SCALAR"
        },
        {
            "bufferView" : 4,
            "componentType" : 5126,
            "count" : 400,
            "max" : [
                0.37641608715057373,
                0.3552587330341339,
                0.39206424355506897
            ],
            "min" : [
                -0.37641608715057373,
                -0.0037555466406047344,
                -0.3957872986793518
            ],
            "type" : "VEC3"
        },
        {
            "bufferView" : 5,
            "componentType" : 5126,
            "count" : 400,
            "type" : "VEC3"
        },
        {
            "bufferView" : 6,
            "componentType" : 5126,
            "count" : 400,
            "type" : "VEC2"
        },
        {
            "bufferView" : 7,
            "componentType" : 5123,
            "count" : 600,
            "type" : "SCALAR"
        },
        {
            "bufferView" : 8,
            "componentType" : 5126,
            "count" : 180,
            "max" : [
                0.38268837332725525,
                1.2789664268493652,
                0.3985973000526428
            ],
            "min" : [
                -0.38268834352493286,
                -0.9930601716041565,
                -0.40238237380981445
            ],
            "type" : "VEC3"
        },
        {
            "bufferView" : 9,
            "componentType" : 5126,
            "count" : 180,
            "type" : "VEC3"
        },
        {
            "bufferView" : 10,
            "componentType" : 5126,
            "count" : 180,
            "type" : "VEC2"
        },
        {
            "bufferView" : 11,
            "componentType" : 5123,
            "count" : 270,
            "type" : "SCALAR"
        },
        {
            "bufferView" : 12,
            "componentType" : 5126,
            "count" : 10,
            "max" : [
                0.1375260353088379,
                1.156233549118042,
                0.14324329793453217
            ],
            "min" : [
                -0.13752610981464386,
                1.1562334299087524,
                -0.14460338652133942
            ],
            "type" : "VEC3"
        },
        {
            "bufferView" : 13,
            "componentType" : 5126,
            "count" : 10,
            "type" : "VEC3"
        },
        {
            "bufferView" : 14,
            "componentType" : 5126,
            "count" : 10,
            "type" : "VEC2"
        },
        {
            "bufferView" : 15,
            "componentType" : 5123,
            "count" : 24,
            "type" : "SCALAR"
        }
    ],
    "bufferViews" : [
        {
            "buffer" : 0,
            "byteLength" : 31680,
            "byteOffset" : 0
        },
        {
            "buffer" : 0,
            "byteLength" : 31680,
            "byteOffset" : 31680
        },
        {
            "buffer" : 0,
            "byteLength" : 21120,
            "byteOffset" : 63360
        },
        {
            "buffer" : 0,
            "byteLength" : 7920,
            "byteOffset" : 84480
        },
        {
            "buffer" : 0,
            "byteLength" : 4800,
            "byteOffset" : 92400
        },
        {
            "buffer" : 0,
            "byteLength" : 4800,
            "byteOffset" : 97200
        },
        {
            "buffer" : 0,
            "byteLength" : 3200,
            "byteOffset" : 102000
        },
        {
            "buffer" : 0,
            "byteLength" : 1200,
            "byteOffset" : 105200
        },
        {
            "buffer" : 0,
            "byteLength" : 2160,
            "byteOffset" : 106400
        },
        {
            "buffer" : 0,
            "byteLength" : 2160,
            "byteOffset" : 108560
        },
        {
            "buffer" : 0,
            "byteLength" : 1440,
            "byteOffset" : 110720
        },
        {
            "buffer" : 0,
            "byteLength" : 540,
            "byteOffset" : 112160
        },
        {
            "buffer" : 0,
            "byteLength" : 120,
            "byteOffset" : 112700
        },
        {
            "buffer" : 0,
            "byteLength" : 120,
            "byteOffset" : 112820
        },
        {
            "buffer" : 0,
            "byteLength" : 80,
            "byteOffset" : 112940
        },
        {
            "buffer" : 0,
            "byteLength" : 48,
            "byteOffset" : 113020
        }
    ],
    "buffers" : [
        {
            "byteLength" : 113068,
            "uri" : "data:application/octet-stream;base64,"
        }
    ]
}
